<svg width="26" height="26" viewBox="0 0 26 26" fill="none" xmlns="http://www.w3.org/2000/svg">
<path d="M21.9375 6.90679H20.7188V5.68804C20.7188 5.47255 20.6331 5.26589 20.4808 5.11352C20.3284 4.96114 20.1217 4.87554 19.9062 4.87554C19.6908 4.87554 19.4841 4.96114 19.3317 5.11352C19.1794 5.26589 19.0938 5.47255 19.0938 5.68804V6.90679H17.875C17.6595 6.90679 17.4528 6.99239 17.3005 7.14477C17.1481 7.29714 17.0625 7.5038 17.0625 7.71929C17.0625 7.93478 17.1481 8.14144 17.3005 8.29381C17.4528 8.44619 17.6595 8.53179 17.875 8.53179H19.0938V9.75054C19.0938 9.96603 19.1794 10.1727 19.3317 10.3251C19.4841 10.4774 19.6908 10.563 19.9062 10.563C20.1217 10.563 20.3284 10.4774 20.4808 10.3251C20.6331 10.1727 20.7188 9.96603 20.7188 9.75054V8.53179H21.9375C22.153 8.53179 22.3597 8.44619 22.512 8.29381C22.6644 8.14144 22.75 7.93478 22.75 7.71929C22.75 7.5038 22.6644 7.29714 22.512 7.14477C22.3597 6.99239 22.153 6.90679 21.9375 6.90679ZM20.3125 17.063H7.3125C7.09701 17.063 6.89035 16.9774 6.73798 16.8251C6.5856 16.6727 6.5 16.466 6.5 16.2505C6.5 16.0351 6.5856 15.8284 6.73798 15.676C6.89035 15.5236 7.09701 15.438 7.3125 15.438H18.6875C18.8438 15.4377 18.9967 15.3923 19.1278 15.3073C19.259 15.2223 19.3628 15.1012 19.4269 14.9587L20.1581 13.3337C20.245 13.1393 20.2521 12.9187 20.178 12.7192C20.1039 12.5196 19.9544 12.3572 19.7617 12.2667C19.5691 12.1762 19.3486 12.1649 19.1477 12.2353C18.9468 12.3057 18.7816 12.4521 18.6875 12.643L18.1594 13.813H8.82375L7.94625 8.12554H14.625C14.8405 8.12554 15.0472 8.03994 15.1995 7.88756C15.3519 7.73519 15.4375 7.52853 15.4375 7.31304C15.4375 7.09755 15.3519 6.89089 15.1995 6.73852C15.0472 6.58614 14.8405 6.50054 14.625 6.50054H7.69438L7.3125 3.94117C7.28312 3.74742 7.18471 3.57082 7.0354 3.44391C6.88609 3.317 6.69595 3.24833 6.5 3.25054H4.0625C3.84701 3.25054 3.64035 3.33614 3.48798 3.48852C3.3356 3.64089 3.25 3.84755 3.25 4.06304C3.25 4.27853 3.3356 4.48519 3.48798 4.63756C3.64035 4.78994 3.84701 4.87554 4.0625 4.87554H5.80125L7.1825 13.813C6.66012 13.8487 6.16312 14.0517 5.76507 14.3918C5.36702 14.732 5.08909 15.1913 4.97242 15.7017C4.85575 16.2122 4.90654 16.7466 5.11728 17.2259C5.32802 17.7052 5.6875 18.104 6.1425 18.363C5.84363 18.8223 5.68548 19.3589 5.6875 19.9068C5.6875 20.661 5.98711 21.3843 6.52042 21.9176C7.05372 22.4509 7.77704 22.7505 8.53125 22.7505C9.28546 22.7505 10.0088 22.4509 10.5421 21.9176C11.0754 21.3843 11.375 20.661 11.375 19.9068C11.3733 19.4843 11.2761 19.0677 11.0906 18.688H14.9094C14.7239 19.0677 14.6267 19.4843 14.625 19.9068C14.625 20.661 14.9246 21.3843 15.4579 21.9176C15.9912 22.4509 16.7145 22.7505 17.4688 22.7505C18.223 22.7505 18.9463 22.4509 19.4796 21.9176C20.0129 21.3843 20.3125 20.661 20.3125 19.9068C20.3108 19.4843 20.2136 19.0677 20.0281 18.688H20.3125C20.528 18.688 20.7347 18.6024 20.887 18.4501C21.0394 18.2977 21.125 18.091 21.125 17.8755C21.125 17.6601 21.0394 17.4534 20.887 17.301C20.7347 17.1486 20.528 17.063 20.3125 17.063ZM9.75 19.9068C9.75 20.1478 9.67852 20.3835 9.5446 20.5839C9.41069 20.7843 9.22034 20.9405 8.99765 21.0328C8.77495 21.125 8.5299 21.1491 8.29348 21.1021C8.05707 21.0551 7.83991 20.939 7.66946 20.7686C7.49902 20.5981 7.38294 20.381 7.33592 20.1446C7.28889 19.9081 7.31303 19.6631 7.40527 19.4404C7.49752 19.2177 7.65373 19.0274 7.85415 18.8934C8.05457 18.7595 8.2902 18.688 8.53125 18.688C8.85448 18.688 9.16448 18.8164 9.39304 19.045C9.6216 19.2736 9.75 19.5836 9.75 19.9068ZM18.6875 19.9068C18.6875 20.1478 18.616 20.3835 18.4821 20.5839C18.3482 20.7843 18.1578 20.9405 17.9351 21.0328C17.7124 21.125 17.4674 21.1491 17.231 21.1021C16.9946 21.0551 16.7774 20.939 16.607 20.7686C16.4365 20.5981 16.3204 20.381 16.2734 20.1446C16.2264 19.9081 16.2505 19.6631 16.3428 19.4404C16.435 19.2177 16.5912 19.0274 16.7916 18.8934C16.9921 18.7595 17.2277 18.688 17.4688 18.688C17.792 18.688 18.102 18.8164 18.3305 19.045C18.5591 19.2736 18.6875 19.5836 18.6875 19.9068Z" fill="#241F21"/>
</svg>
