<svg width="26" height="26" viewBox="0 0 26 26" fill="none" xmlns="http://www.w3.org/2000/svg">
<path d="M10.8849 9.90995V9.31195H8.58782V12.181H10.8849V11.5921H9.27292V11.0201H10.842V10.4313H9.27292V9.91125L10.8849 9.90995ZM14.118 10.0842C14.118 9.76305 13.988 9.57325 13.7709 9.45105C13.546 9.32105 13.2938 9.31195 12.9389 9.31195H11.362V12.1888H12.0471V11.1397H12.7842C13.0351 11.1397 13.1833 11.1657 13.2873 11.2606C13.4082 11.3997 13.4004 11.6507 13.4004 11.8235V12.1875H14.0933V11.6247C14.0933 11.3646 14.0764 11.2437 13.9802 11.0955C13.8904 10.9867 13.774 10.903 13.6422 10.8524C13.788 10.7841 13.9107 10.6748 13.9954 10.538C14.0801 10.4011 14.1232 10.2425 14.1193 10.0815L14.118 10.0842ZM13.2171 10.491C13.1222 10.5521 13.0091 10.5521 12.8791 10.5521H12.0471V9.91125H12.896C13.0169 9.91125 13.1391 9.92035 13.2249 9.96325C13.3107 10.0062 13.3718 10.0932 13.3718 10.2141C13.3627 10.3441 13.312 10.439 13.2171 10.491ZM1.68092 11.5479H3.11092L3.37092 12.1888H4.76582V9.93595L5.76292 12.1888H6.37002L7.36712 9.93595V12.1888H8.06912V9.31195H6.93422L6.11132 11.2619L5.21042 9.31195H4.09242V12.0328L2.92242 9.31195H1.89932L0.746216 11.999V12.181H1.41312L1.68222 11.5479H1.68092ZM2.39202 9.79815L2.86002 10.9421H1.92402L2.39202 9.79815ZM16.978 9.92815H17.628V9.31325H16.9611C16.484 9.31325 16.1382 9.41725 15.9211 9.65125C15.626 9.96325 15.548 10.3441 15.548 10.7783C15.548 11.2983 15.6689 11.6272 15.912 11.8794C16.1031 12.1394 16.4489 12.2343 16.9091 12.2006H17.7151L17.9751 11.5596H19.4051L19.6742 12.2006H21.0691V10.0426L22.3691 12.2006H23.3402V9.32365H22.6382V11.3256L21.4331 9.32365H20.384V12.0445L19.2231 9.32365H18.2L17.2289 11.5856H16.9169C16.7349 11.5856 16.5438 11.5505 16.4398 11.4387C16.3098 11.2918 16.2487 11.0747 16.2487 10.7627C16.2487 10.4598 16.3267 10.2336 16.4476 10.1128C16.5867 9.96585 16.7245 9.93075 16.9767 9.93075L16.978 9.92815ZM18.694 9.79815L19.1711 10.9421H18.226L18.694 9.79815ZM14.5171 9.31195H15.2191V12.1888H14.5171V9.31195ZM17.0651 15.0319C17.0735 14.9024 17.0445 14.7731 16.9816 14.6595C16.9187 14.5459 16.8245 14.4527 16.7102 14.391C16.4853 14.2701 16.2331 14.252 15.8873 14.252H14.3013V17.1288H14.9942V16.0798H15.7313C15.9822 16.0798 16.1382 16.1057 16.2344 16.2097C16.3644 16.3398 16.3475 16.5998 16.3475 16.7726V17.1276H17.0404V16.5555C17.0404 16.3046 17.0235 16.1746 16.9273 16.0265C16.8395 15.9156 16.7224 15.8314 16.5893 15.7833C16.7353 15.72 16.8589 15.6143 16.944 15.4798C17.0291 15.3453 17.0717 15.1884 17.0664 15.0293L17.0651 15.0319ZM16.1629 15.4401C16.0571 15.4885 15.9409 15.5095 15.8249 15.5012H14.9929V14.8603H15.8418C15.9627 14.8603 16.0849 14.8603 16.1707 14.9123C16.2578 14.9552 16.3098 15.0514 16.3098 15.1723C16.3098 15.2932 16.2487 15.3895 16.1629 15.4415V15.4401ZM12.818 14.2611H10.6249L9.75002 15.2061L8.90112 14.2611H6.14512V17.1379H8.86602L9.74092 16.185L10.5898 17.1379H11.9249V16.1759H12.7829C13.3809 16.1759 13.9789 16.0108 13.9789 15.2139C13.9698 14.4079 13.364 14.2611 12.818 14.2611ZM8.51112 16.5322H6.83022V15.9601H8.33822V15.3713H6.83022V14.8512H8.55532L9.30932 15.6923L8.51242 16.5335L8.51112 16.5322ZM11.2411 16.8701L10.1842 15.7001L11.2411 14.5653V16.8701ZM12.8089 15.587H11.9249V14.859H12.818C13.0689 14.859 13.234 14.963 13.234 15.2139C13.234 15.457 13.0689 15.587 12.8089 15.587ZM19.734 14.8499V14.2611H17.446V17.1301H19.734V16.5322H18.1311V15.9601H19.7002V15.3713H18.1311V14.8512L19.734 14.8499ZM25.0991 15.691C25.0838 15.6641 25.063 15.6406 25.038 15.6221C24.882 15.4662 24.6311 15.3972 24.258 15.3881L23.8849 15.379C23.7939 15.3826 23.7029 15.3707 23.6158 15.344C23.5713 15.3284 23.5329 15.2988 23.5064 15.2597C23.48 15.2206 23.4668 15.174 23.4689 15.1268C23.4689 15.0319 23.4949 14.9708 23.5729 14.9188C23.6418 14.8759 23.7289 14.8668 23.8498 14.8668H25.0978V14.252H23.7289C23.01 14.252 22.7409 14.6939 22.7409 15.11C22.7409 16.0199 23.5469 15.977 24.1878 16.003C24.3087 16.003 24.3789 16.0199 24.4309 16.0641C24.4829 16.1083 24.518 16.1681 24.518 16.2552C24.518 16.3332 24.4829 16.3944 24.44 16.4464C24.388 16.4984 24.2931 16.5153 24.1631 16.5153H22.8462V17.1301H24.1722C24.6142 17.1301 24.9353 17.0093 25.1082 16.7661C25.2102 16.6061 25.2614 16.4189 25.2551 16.2292C25.246 15.9783 25.194 15.8223 25.0991 15.6923V15.691ZM24.0929 17.693H22.3158V17.4331C22.1078 17.5982 21.7347 17.693 21.3798 17.693H15.7729V16.7661C15.7729 16.653 15.7638 16.6453 15.652 16.6453H15.5649V17.6943H13.7189V16.6115C13.4069 16.7414 13.0598 16.7584 12.766 16.7505H12.5489V17.7034H10.3129L9.75782 17.0794L9.17672 17.7034H5.51982V13.6903H9.22092L9.75002 14.3052L10.3129 13.6903H12.792C13.078 13.6903 13.546 13.7163 13.7631 13.9243V13.6903H15.9822C16.1902 13.6903 16.6413 13.7332 16.9091 13.9243V13.6903H20.2631V13.9243C20.4282 13.7683 20.7831 13.6903 21.086 13.6903H22.9671V13.9243C23.166 13.7852 23.4442 13.6903 23.8251 13.6903H25.0991V0.335449H0.746216V10.4495L1.49112 8.74255H3.28512L3.51912 9.21965V8.74255H5.61602L6.07492 9.77345L6.52602 8.74255H13.1911C13.494 8.74255 13.7631 8.80365 13.962 8.97655V8.74255H15.7911V8.97655C16.1031 8.80365 16.4931 8.74255 16.9351 8.74255H19.578L19.8211 9.21965V8.74255H21.7802L22.0493 9.21965V8.74255H23.9564V12.7465H22.0324L21.6684 12.1395V12.7465H19.2595L18.9995 12.1056H18.4106L18.1415 12.7465H16.8935C16.3995 12.7465 16.0355 12.6334 15.7924 12.5034V12.7465H12.8284V11.8365C12.8284 11.7065 12.8024 11.6974 12.7244 11.6974H12.6113V12.7465H6.87442V12.2525L6.66642 12.7465H5.47042L5.26242 12.2525V12.7374H2.95752L2.69752 12.0965H2.10862L1.83952 12.7374H0.747516V24.8444H25.0926V17.4954C24.8235 17.6423 24.4595 17.6943 24.0955 17.6943L24.0929 17.693ZM21.476 16.514H20.1409V17.1288H21.476C22.1689 17.1288 22.5511 16.8428 22.5511 16.2188C22.5511 15.9237 22.4822 15.7508 22.3431 15.6117C22.1871 15.4557 21.9362 15.3869 21.554 15.3778L21.1809 15.3686C21.0899 15.3722 20.9989 15.3603 20.9118 15.3335C20.8673 15.318 20.8289 15.2884 20.8024 15.2493C20.776 15.2102 20.7628 15.1636 20.7649 15.1165C20.7649 15.0216 20.7909 14.9605 20.8689 14.9085C20.9378 14.8656 21.0158 14.8565 21.1458 14.8565H22.4029V14.2415H21.0249C20.306 14.2415 20.046 14.6835 20.046 15.0995C20.046 16.0095 20.852 15.9667 21.4929 15.9927C21.6138 15.9927 21.684 16.0095 21.736 16.0538C21.7789 16.0966 21.8231 16.1578 21.8231 16.2449C21.8231 16.3229 21.788 16.3839 21.7451 16.4359C21.7022 16.497 21.606 16.514 21.476 16.514Z" fill="white"/>
</svg>
