<svg width="51" height="32" viewBox="0 0 51 32" fill="none" xmlns="http://www.w3.org/2000/svg">
<mask id="mask0_14_766" style="mask-type:luminance" maskUnits="userSpaceOnUse" x="7" y="7" width="37" height="18">
<path d="M13.3251 8.33277C12.8874 8.8398 12.5077 9.65046 12.6118 10.427C13.3698 10.4867 14.1397 10.0409 14.6108 9.46842H14.6093C15.0804 8.89455 15.3977 8.09953 15.3106 7.30664C14.632 7.33366 13.8089 7.76175 13.3251 8.33277ZM22.9507 8.50842C22.5377 8.55606 22.1552 8.61011 21.8117 8.66984L21.7012 8.68904V20.7523H22.7977V15.67C23.1681 15.734 23.591 15.7674 24.0585 15.7674C24.6783 15.7674 25.2598 15.6878 25.7868 15.5306C26.293 15.386 26.7645 15.1392 27.1723 14.8053C27.5619 14.4796 27.8722 14.0729 28.0981 13.5964C28.322 13.1186 28.4381 12.5568 28.4381 11.9253C28.4381 11.4005 28.3553 10.9298 28.1938 10.5258C28.0389 10.1315 27.8077 9.77192 27.5138 9.46771L27.5123 9.46842C27.1702 9.13562 26.7261 8.8782 26.1984 8.70042C25.6742 8.52549 25.0438 8.43731 24.3263 8.43731C23.8318 8.43731 23.3672 8.46077 22.9507 8.50842ZM23.3495 14.7548C23.1637 14.7384 22.9794 14.7075 22.7984 14.6624V9.53313C22.9429 9.50611 23.1221 9.48122 23.3325 9.45846C23.5995 9.43002 23.9204 9.4158 24.2901 9.4158C24.747 9.4158 25.1685 9.46984 25.5439 9.57935C25.9143 9.68602 26.2381 9.84531 26.5072 10.0522C26.7693 10.257 26.9776 10.523 27.1213 10.8437C27.2651 11.1687 27.3381 11.5562 27.3381 11.9957C27.3381 12.9088 27.0562 13.6078 26.5023 14.0764L26.5037 14.075C25.9398 14.5493 25.1437 14.7904 24.1308 14.7904C23.8545 14.7904 23.591 14.7776 23.3495 14.7548ZM12.9717 11.2021C12.4383 11.2021 11.6188 10.5977 10.7447 10.6154C9.5993 10.6318 8.54318 11.2839 7.95384 12.3129C6.76526 14.3907 7.65209 17.4599 8.81093 19.1395C9.37759 19.963 10.0519 20.8867 10.9416 20.8533C11.7973 20.8206 12.1174 20.2986 13.1516 20.2986C13.6609 20.2979 13.9896 20.433 14.2998 20.5682C14.62 20.7061 14.9203 20.8455 15.3772 20.8362C16.2966 20.8163 16.881 19.9971 17.4455 19.1694C18.0922 18.2165 18.3607 17.2921 18.3748 17.2451C18.3557 17.2345 16.5842 16.5554 16.5643 14.5038V14.5031C16.5502 12.7872 17.9583 11.9616 18.0235 11.9218C17.2273 10.7591 15.9956 10.5991 15.5557 10.5806C15.4848 10.5735 15.4147 10.5706 15.3446 10.5706C14.3721 10.5706 13.4682 11.2021 12.9717 11.2021ZM30.6743 11.9474C30.2425 12.0723 29.834 12.2676 29.4652 12.5255L29.3753 12.5866L29.7471 13.457L29.8817 13.3674C30.1651 13.1754 30.4838 13.0233 30.8309 12.9145C31.178 12.8078 31.5321 12.7509 31.8835 12.7509C32.3411 12.7509 32.7066 12.8362 32.9672 12.9998C33.2314 13.1655 33.4312 13.3717 33.5601 13.6114C33.6947 13.8588 33.7811 14.1234 33.8201 14.3964C33.8611 14.6809 33.881 14.9369 33.881 15.1545V15.2519C32.2553 15.2448 30.9853 15.5164 30.1424 16.0611C29.257 16.6336 28.8079 17.4492 28.8079 18.4825C28.8079 18.7797 28.861 19.0798 28.9658 19.3763C29.0735 19.6764 29.2336 19.9452 29.4447 20.1742C29.6572 20.406 29.9313 20.5952 30.2593 20.7374C30.5851 20.8796 30.9704 20.9507 31.3997 20.9507C31.7397 20.9507 32.0584 20.9081 32.3488 20.8227C32.8668 20.6702 33.3384 20.3895 33.7202 20.0064C33.7931 19.9326 33.8628 19.8557 33.9291 19.776H33.9716L34.0722 20.7538H35.1291L35.1007 20.5973C35.0422 20.2761 35.0074 19.9509 34.9966 19.6245L34.9938 19.6217C34.9817 19.2803 34.9761 18.9376 34.9761 18.5962V15.2434C34.9761 14.8451 34.9364 14.4398 34.8592 14.0373C34.7831 13.6368 34.6282 13.2556 34.4037 12.9159C34.1672 12.5685 33.849 12.2852 33.4772 12.091C33.0876 11.8805 32.5798 11.7738 31.9685 11.7738C31.5313 11.7725 31.0959 11.8309 30.6743 11.9474ZM30.8961 19.8727C30.7119 19.8087 30.549 19.7106 30.4094 19.5811C30.2626 19.4416 30.1467 19.2724 30.0694 19.0848C29.9823 18.8857 29.9384 18.6368 29.9384 18.3488C29.9384 17.8766 30.0659 17.4933 30.3138 17.2138C30.5688 16.9237 30.8996 16.6997 31.2913 16.549C31.7157 16.3884 32.1599 16.2867 32.6116 16.2467C33.0323 16.2057 33.4548 16.1874 33.8774 16.192L33.8788 17.9029C33.8788 18.0217 33.8505 18.1831 33.7974 18.3765C33.7269 18.5854 33.628 18.7836 33.5034 18.9653C33.3759 19.153 33.2151 19.3258 33.0253 19.4773C32.8362 19.6266 32.6102 19.7475 32.3538 19.8371C32.0974 19.9267 31.8013 19.9722 31.4755 19.9722C31.2757 19.9722 31.0823 19.9381 30.8961 19.8727ZM40.3927 17.5559C40.2652 17.8937 40.1448 18.2336 40.0371 18.5642L39.8834 19.0357H39.8451C39.797 18.8793 39.746 18.7178 39.6893 18.5472C39.5831 18.2201 39.4683 17.8979 39.3514 17.5907L37.1627 11.9687H35.9911L39.1219 20.0519C39.2048 20.2474 39.2168 20.3363 39.2168 20.3719C39.2168 20.3826 39.2119 20.4501 39.1212 20.6954C38.9493 21.1338 38.7258 21.5499 38.4554 21.9349C38.2053 22.2777 37.9758 22.5564 37.7711 22.7619C37.552 22.9865 37.3054 23.1825 37.0373 23.345C36.7823 23.4958 36.55 23.6188 36.3431 23.7106L36.2263 23.7639L36.6073 24.6954L36.7292 24.6485C36.8283 24.6115 37.0146 24.5262 37.2973 24.3875C37.5834 24.2453 37.8993 24.022 38.2372 23.7191C38.5367 23.4553 38.8024 23.1553 39.0284 22.8259C39.2593 22.4938 39.491 22.102 39.7169 21.6668C39.9615 21.1884 40.1844 20.6991 40.3849 20.2005C40.6045 19.6579 40.8382 19.0514 41.0826 18.3978L43.6113 11.9694L42.4398 11.968L40.3927 17.5559Z" fill="white"/>
</mask>
<g mask="url(#mask0_14_766)">
<path fill-rule="evenodd" clip-rule="evenodd" d="M3.84839 28.2509H47.1531V3.75098H3.84839V28.2509Z" fill="white"/>
</g>
</svg>
