<svg width="52" height="20" viewBox="0 0 52 20" fill="none" xmlns="http://www.w3.org/2000/svg">
<g clip-path="url(#clip0_14_777)">
<path d="M22.598 14.617C21.8687 14.9423 21.1917 15.105 20.567 15.105C19.3303 15.105 18.2887 14.685 17.442 13.845C16.5953 13.005 16.172 11.9667 16.172 10.73C16.172 9.532 16.605 8.50667 17.471 7.654C18.337 6.80133 19.382 6.375 20.606 6.375C21.296 6.375 21.96 6.54433 22.598 6.883V8.797C21.96 8.17167 21.283 7.859 20.567 7.859C19.799 7.859 19.1513 8.139 18.624 8.699C18.0967 9.259 17.833 9.936 17.833 10.73C17.833 11.5767 18.0967 12.2667 18.624 12.8C19.1513 13.3333 19.825 13.6003 20.645 13.601C21.3483 13.601 21.9993 13.3017 22.598 12.703V14.617ZM14.512 8.465C14.1213 8.02233 13.6787 7.801 13.184 7.801C12.8327 7.801 12.543 7.889 12.315 8.065C12.087 8.241 11.973 8.459 11.973 8.719C11.973 8.94033 12.061 9.126 12.237 9.276C12.413 9.426 12.7417 9.58567 13.223 9.755C14.1603 10.0937 14.7983 10.4483 15.137 10.819C15.4757 11.1897 15.645 11.7073 15.645 12.372C15.645 13.1793 15.3747 13.837 14.834 14.345C14.2933 14.853 13.6 15.107 12.754 15.107C11.5433 15.107 10.5797 14.5797 9.863 13.525L10.918 12.509C11.3087 13.251 11.901 13.622 12.695 13.622C13.0597 13.622 13.3623 13.5113 13.603 13.29C13.8437 13.0687 13.964 12.7887 13.964 12.45C13.964 12.0987 13.8013 11.8123 13.476 11.591C13.294 11.4737 12.9163 11.3173 12.343 11.122C11.5877 10.8353 11.057 10.5227 10.751 10.184C10.445 9.84533 10.292 9.383 10.292 8.797C10.292 8.11967 10.5427 7.55333 11.044 7.098C11.5453 6.64267 12.1607 6.41467 12.89 6.414C13.8147 6.414 14.635 6.733 15.351 7.371L14.512 8.465ZM27.676 6.414C28.926 6.414 29.9773 6.834 30.83 7.674C31.6827 8.514 32.109 9.53933 32.109 10.75C32.109 11.9607 31.6793 12.9893 30.82 13.836C29.9607 14.6827 28.9123 15.106 27.675 15.106C26.399 15.106 25.3347 14.6893 24.482 13.856C23.6293 13.0227 23.203 11.9743 23.203 10.711C23.203 9.513 23.6393 8.49733 24.512 7.664C25.3847 6.83067 26.4393 6.414 27.676 6.414ZM2.383 6.551C3.69833 6.551 4.77567 6.94167 5.615 7.723C6.45433 8.50433 6.87433 9.507 6.875 10.731C6.875 11.343 6.74467 11.9323 6.484 12.499C6.22333 13.0657 5.85233 13.5507 5.371 13.954C4.56367 14.6053 3.56767 14.931 2.383 14.931H0V6.552L2.383 6.551ZM7.617 6.551H9.258V14.93H7.617V6.551ZM38.047 6.551H39.824L36.191 15.125H35.332L31.797 6.551H33.555L35.782 12.176L38.047 6.551ZM40.547 6.551H45.176V7.977H42.188V9.832H45.059V11.238H42.188V13.504H45.176V14.93H40.547V6.551ZM48.672 6.551C49.6093 6.551 50.332 6.766 50.84 7.196C51.348 7.626 51.602 8.238 51.602 9.032C51.602 9.67 51.4423 10.191 51.123 10.595C50.8037 10.999 50.3383 11.266 49.727 11.396L52.344 14.931H50.352L48.086 11.533H47.891V14.931H46.25V6.552L48.672 6.551ZM48.359 10.398C49.4137 10.398 49.941 9.96833 49.941 9.109C49.941 8.289 49.4137 7.879 48.359 7.879H47.89V10.399H48.359V10.398ZM2.09 13.504C3.07933 13.504 3.815 13.2827 4.297 12.84C4.58367 12.5793 4.80833 12.2637 4.971 11.893C5.13367 11.5223 5.215 11.135 5.215 10.731C5.215 9.88433 4.909 9.19433 4.297 8.661C3.80233 8.205 3.06667 7.977 2.09 7.977H1.641V13.504H2.09Z" fill="white"/>
</g>
<defs>
<clipPath id="clip0_14_777">
<rect width="52" height="20" fill="white"/>
</clipPath>
</defs>
</svg>
