<svg width="37" height="24" viewBox="0 0 37 24" fill="none" xmlns="http://www.w3.org/2000/svg">
<path fill-rule="evenodd" clip-rule="evenodd" d="M27.9511 13.0657C27.0872 13.0657 26.9151 13.4449 26.9151 13.7649C26.9151 13.9249 27.0132 14.2065 27.3719 14.2065C28.0749 14.2065 28.2246 13.2865 28.1988 13.0881C28.1747 13.0881 28.1506 13.0641 27.9511 13.0641V13.0657ZM17.8147 11.5057C17.1728 11.5057 17.0489 12.2305 17.0489 12.3041H18.3568C18.3439 12.2417 18.4694 11.5057 17.8147 11.5057ZM8.92503 13.0657C8.06116 13.0657 7.88742 13.4449 7.88742 13.7649C7.88742 13.9249 7.98555 14.2065 8.3459 14.2065C9.0489 14.2065 9.19851 13.2865 9.17277 13.0881C9.14703 13.0881 9.12451 13.0641 8.92503 13.0641V13.0657ZM33.7794 11.6273C33.2598 11.6273 32.8528 12.2289 32.8528 13.1265C32.8528 13.6801 33.049 14.0353 33.4705 14.0353C34.1124 14.0353 34.4084 13.2113 34.4084 12.5969C34.4212 11.9217 34.2009 11.6273 33.7794 11.6273ZM26.2089 1.52167C23.6303 1.52185 21.1372 2.44149 19.1821 4.11367C20.5923 5.44055 21.634 7.10716 22.2064 8.95207H21.6884C21.1221 7.23442 20.1328 5.68498 18.8105 4.44487C17.4861 5.68301 16.4969 7.23315 15.9341 8.95207H15.4145C16.0147 7.0284 17.125 5.30117 18.6287 3.95207C16.6287 2.223 14.0668 1.27269 11.4169 1.27687C9.96735 1.27645 8.53192 1.56011 7.19262 2.11163C5.85333 2.66316 4.63642 3.47175 3.61144 4.4912C2.58645 5.51064 1.77347 6.72097 1.21894 8.05303C0.664416 9.38508 0.379217 10.8128 0.37964 12.2545C0.378569 14.3574 0.984922 16.4164 2.12656 18.1864C3.2682 19.9565 4.89705 21.3631 6.81934 22.2389C8.74162 23.1147 10.8764 23.4228 12.9697 23.1266C15.063 22.8304 17.0267 21.9423 18.6271 20.5681C17.2827 19.3542 16.2501 17.8378 15.6156 16.1457H16.1465C16.7318 17.6323 17.6423 18.9707 18.8121 20.0641C19.9828 18.9709 20.8944 17.6325 21.4809 16.1457H22.0118C21.4128 17.7613 20.444 19.2162 19.1821 20.3953C21.1372 22.0675 23.6303 22.9871 26.2089 22.9873C32.1594 22.9873 37 18.1729 37 12.2529C37 6.33287 32.161 1.52167 26.2089 1.52167ZM5.03521 15.1041L5.70121 10.9153L4.19547 15.1041H3.39273L3.2946 10.9153L2.57873 15.1041H1.44299L2.38247 9.54087H4.09734L4.14721 12.9537L5.30708 9.54087H7.15868L6.23368 15.1041H5.03521ZM9.0489 15.1041L9.08429 14.6609C9.06016 14.6609 8.71429 15.2017 7.87455 15.2017C7.44342 15.2017 6.74042 14.9681 6.74042 13.9489C6.74042 12.6481 7.80216 12.2193 8.8269 12.2193C8.98777 12.2193 9.33203 12.2433 9.33203 12.2433C9.33203 12.2433 9.36903 12.1697 9.36903 11.9489C9.36903 11.5921 9.04729 11.5425 8.61616 11.5425C7.85203 11.5425 7.33242 11.7505 7.33242 11.7505L7.50455 10.7425C7.50455 10.7425 8.12229 10.4865 8.92503 10.4865C9.34329 10.4865 10.5418 10.5345 10.5418 11.8977L10.0849 15.1137H9.0489V15.1041ZM13.4069 13.6801C13.4069 15.2273 11.8995 15.1649 11.6292 15.1649C10.6415 15.1649 10.3439 15.0289 10.3069 15.0177L10.4678 14.0001C10.4678 13.9873 10.9616 14.1713 11.5054 14.1713C11.8255 14.1713 12.2341 14.1473 12.2341 13.7665C12.2341 13.2001 10.7654 13.3361 10.7654 11.9969C10.7654 10.8177 11.6405 10.4753 12.5189 10.4753C13.1849 10.4753 13.6031 10.5601 13.6031 10.5601L13.4567 11.5921C13.4567 11.5921 12.8132 11.5441 12.654 11.5441C12.2357 11.5441 12.0121 11.6273 12.0121 11.9233C12.0121 12.5249 13.4085 12.2289 13.4085 13.6801H13.4069ZM15.1217 11.6897L14.7887 13.7153C14.763 13.8753 14.8129 14.0961 15.2199 14.0961C15.318 14.0961 15.4419 14.0593 15.5175 14.0593L15.3695 15.0545C15.2456 15.0913 14.9126 15.2017 14.4927 15.2017C13.949 15.2017 13.5549 14.8945 13.5549 14.2065C13.5549 13.7393 14.2209 9.93447 14.2466 9.90887H15.4209L15.2955 10.5969H15.8746L15.7282 11.6897H15.1217ZM17.9723 14.1697C18.5659 14.1697 19.2191 13.8881 19.2191 13.8881L19.0099 15.0161C19.0099 15.0161 18.6271 15.2129 17.7745 15.2129C16.8366 15.2129 15.7507 14.8193 15.7507 13.1745C15.7507 11.7505 16.6259 10.4849 17.8002 10.4849C19.0839 10.4849 19.4797 11.4177 19.4797 12.1921C19.4797 12.4977 19.3317 13.2609 19.3317 13.2609H16.9347C16.9347 13.2353 16.7143 14.1681 17.9723 14.1681V14.1697ZM21.875 11.8977C21.061 11.6161 20.9999 13.1761 20.6524 15.1137H19.4427L20.1714 10.5953H21.2702L21.1736 11.2465C21.1736 11.2465 21.5678 10.5345 22.0858 10.5345C22.1599 10.5327 22.2342 10.5364 22.3078 10.5457C22.1598 10.8657 22.0102 11.1489 21.875 11.8977ZM25.2469 15.0417C25.2469 15.0417 24.6162 15.2017 24.2221 15.2017C22.8258 15.2017 22.1099 14.2417 22.1099 12.7825C22.1099 10.5841 23.4322 9.41767 24.79 9.41767C25.3949 9.41767 26.1107 9.69927 26.1107 9.69927L25.9145 10.9393C25.9145 10.9393 25.4335 10.6081 24.8399 10.6081C24.0387 10.6081 23.3212 11.3697 23.3212 12.7441C23.3212 13.4209 23.6559 14.0577 24.4827 14.0577C24.8785 14.0577 25.4576 13.7761 25.4576 13.7761L25.2485 15.0401L25.2469 15.0417ZM28.0717 15.1041L28.1087 14.6609C28.083 14.6609 27.7387 15.2017 26.899 15.2017C26.4679 15.2017 25.7632 14.9681 25.7632 13.9489C25.7632 12.6481 26.825 12.2193 27.8497 12.2193C28.0106 12.2193 28.3565 12.2433 28.3565 12.2433C28.3565 12.2433 28.3935 12.1697 28.3935 11.9489C28.3935 11.5921 28.0717 11.5425 27.6406 11.5425C26.8749 11.5425 26.3552 11.7505 26.3552 11.7505L26.529 10.7425C26.529 10.7425 27.1467 10.4865 27.9479 10.4865C28.3661 10.4865 29.5662 10.5345 29.5662 11.8977L29.1093 15.1137C29.0965 15.1025 28.0717 15.1041 28.0717 15.1041ZM30.5041 15.1169H29.2943L30.0231 10.5969H31.1218L31.0253 11.2481C31.0253 11.2481 31.4194 10.5345 31.9374 10.5345C32.0838 10.5345 32.1594 10.5473 32.1594 10.5473C31.9986 10.8673 31.8618 11.1489 31.7267 11.8977C30.9127 11.6161 30.8516 13.1889 30.5041 15.1137V15.1169ZM34.0979 15.1041L34.1462 14.6881C34.1462 14.6881 33.752 15.1777 33.0474 15.1777C32.0725 15.1777 31.5899 14.2449 31.5899 13.2865C31.5899 11.8001 32.4924 10.5105 33.5654 10.5105C34.2572 10.5105 34.7012 11.1121 34.7012 11.1121L34.9586 9.55207H36.1329L35.232 15.1025H34.0963L34.0979 15.1041ZM36.297 15.0801C36.245 15.1126 36.1846 15.1293 36.1232 15.1281C36.0622 15.1307 36.0019 15.1139 35.9511 15.0801C35.894 15.0478 35.8468 15.0008 35.8144 14.9441C35.7809 14.8927 35.7641 14.8324 35.7661 14.7713C35.7661 14.7105 35.7774 14.6481 35.8144 14.6001C35.8468 14.5433 35.894 14.4963 35.9511 14.4641C36.0023 14.4311 36.0623 14.4144 36.1232 14.4161C36.186 14.4161 36.2471 14.4273 36.297 14.4641C36.3581 14.4897 36.3951 14.5377 36.4337 14.6001C36.4707 14.6609 36.482 14.7105 36.482 14.7713C36.485 14.8325 36.4681 14.8931 36.4337 14.9441C36.4019 15.0013 36.3545 15.0484 36.297 15.0801ZM36.2584 14.5153C36.213 14.4916 36.1625 14.4792 36.1112 14.4792C36.0599 14.4792 36.0094 14.4916 35.964 14.5153C35.9155 14.539 35.876 14.5778 35.8514 14.6257C35.8276 14.6708 35.8151 14.7211 35.8151 14.7721C35.8151 14.8231 35.8276 14.8733 35.8514 14.9185C35.8771 14.9665 35.9141 15.0049 35.964 15.0305C36.0094 15.0542 36.0599 15.0665 36.1112 15.0665C36.1625 15.0665 36.213 15.0542 36.2584 15.0305C36.3075 15.0068 36.3472 14.9673 36.371 14.9185C36.3948 14.8733 36.4072 14.8231 36.4072 14.7721C36.4072 14.7211 36.3948 14.6708 36.371 14.6257C36.3467 14.5772 36.3071 14.5395 36.2584 14.5153ZM36.2101 14.9697L36.1731 14.9073C36.1576 14.8754 36.1364 14.8467 36.1104 14.8225C36.0975 14.8113 36.0862 14.8097 36.0621 14.8097H36.0251V14.9697H35.964V14.5889H36.0991C36.149 14.5889 36.1747 14.5889 36.1989 14.6017C36.2214 14.6145 36.2342 14.6273 36.2471 14.6385C36.26 14.6497 36.26 14.6737 36.26 14.6993C36.26 14.7249 36.2471 14.7473 36.2342 14.7729C36.2085 14.7985 36.186 14.8097 36.1602 14.8097C36.1731 14.8097 36.186 14.8225 36.1972 14.8353C36.2069 14.8481 36.2326 14.8721 36.2584 14.9089L36.3066 14.9841H36.2101V14.9681V14.9697ZM36.186 14.6977C36.186 14.6849 36.186 14.6721 36.1731 14.6721L36.1474 14.6481C36.1345 14.6481 36.1104 14.6353 36.0862 14.6353H36.0106V14.7457H36.0862C36.1216 14.7457 36.1474 14.7457 36.1602 14.7329C36.186 14.7201 36.186 14.7089 36.186 14.6977Z" fill="white"/>
</svg>
