<svg width="36" height="20" viewBox="0 0 36 20" fill="none" xmlns="http://www.w3.org/2000/svg">
<path d="M33.691 7.14111H35.703L34.043 14.6411H32.051L33.691 7.14111ZM5.33198 7.16011C5.94398 7.16011 6.46164 7.38478 6.88498 7.83411C7.30831 8.28345 7.43531 8.90511 7.26598 9.69911C7.10998 10.4671 6.75531 11.0694 6.20198 11.5061C5.64864 11.9428 4.99431 12.1608 4.23898 12.1601H2.69598L2.14898 14.6401H0.000976562L1.64198 7.16011H5.33298H5.33198ZM24.473 7.16011C25.085 7.16011 25.606 7.38478 26.036 7.83411C26.466 8.28345 26.5963 8.90511 26.427 9.69911C26.323 10.2071 26.1243 10.6498 25.831 11.0271C25.5376 11.4044 25.1796 11.6878 24.757 11.8771C24.3343 12.0664 23.869 12.1608 23.361 12.1601H21.838L21.311 14.6401H19.163L20.804 7.16011H24.476H24.473ZM8.02698 9.05511C8.09231 9.04178 8.23231 9.00911 8.44698 8.95711C8.66164 8.90511 8.84064 8.86278 8.98398 8.83011C9.12731 8.79745 9.31598 8.76478 9.54998 8.73211C9.78398 8.69945 10.012 8.68311 10.234 8.68311C10.5986 8.66978 10.9403 8.69578 11.259 8.76111C11.5776 8.82645 11.8706 8.93078 12.138 9.07411C12.4053 9.21745 12.594 9.43245 12.704 9.71911C12.814 10.0058 12.8236 10.3444 12.733 10.7351L11.913 14.6411H9.93998L10.077 14.0551C9.80364 14.3284 9.45864 14.5238 9.04198 14.6411C8.62531 14.7584 8.23131 14.7878 7.85998 14.7291C7.48864 14.6704 7.19231 14.4654 6.97098 14.1141C6.74964 13.7628 6.69098 13.3004 6.79498 12.7271C6.93831 12.0498 7.34531 11.5648 8.01598 11.2721C8.68664 10.9794 9.60131 10.8331 10.76 10.8331C10.7993 10.6378 10.7796 10.4814 10.701 10.3641C10.6223 10.2468 10.505 10.1654 10.349 10.1201C10.193 10.0748 9.98464 10.0584 9.72398 10.0711C9.38531 10.0844 9.02064 10.1364 8.62998 10.2271C8.23931 10.3178 7.97898 10.4024 7.84898 10.4811L8.02698 9.05511ZM27.207 9.05511C27.285 9.04178 27.399 9.01578 27.549 8.97711C27.699 8.93845 27.839 8.90278 27.969 8.87011C28.099 8.83745 28.2453 8.80811 28.408 8.78211C28.5706 8.75611 28.74 8.73345 28.916 8.71411C29.092 8.69478 29.271 8.68511 29.453 8.68511C29.8303 8.67178 30.1786 8.69778 30.498 8.76311C30.8173 8.82845 31.1103 8.93278 31.377 9.07611C31.6436 9.21945 31.8356 9.43445 31.953 9.72111C32.0703 10.0078 32.0833 10.3464 31.992 10.7371L31.152 14.6431H29.16L29.297 14.0571C29.0236 14.3304 28.6753 14.5258 28.252 14.6431C27.8286 14.7604 27.4283 14.7898 27.051 14.7311C26.6736 14.6724 26.3743 14.4674 26.153 14.1161C25.9316 13.7648 25.873 13.3024 25.977 12.7291C26.0683 12.2604 26.2963 11.8861 26.661 11.6061C27.0256 11.3261 27.475 11.1274 28.009 11.0101C28.543 10.8928 29.2006 10.8341 29.982 10.8341C30.0473 10.5348 29.992 10.3298 29.816 10.2191C29.64 10.1084 29.3503 10.0598 28.947 10.0731C28.7123 10.0731 28.4583 10.0991 28.185 10.1511C27.9116 10.2031 27.674 10.2584 27.472 10.3171C27.27 10.3758 27.117 10.4311 27.013 10.4831L27.207 9.05511ZM4.00398 10.7341C4.18598 10.7341 4.36498 10.6884 4.54098 10.5971C4.71698 10.5058 4.86664 10.3821 4.98998 10.2261C5.11331 10.0701 5.19464 9.89445 5.23398 9.69911C5.31198 9.41245 5.27931 9.17145 5.13598 8.97611C4.99264 8.78078 4.78431 8.68311 4.51098 8.68311H3.47598L3.00698 10.7341H4.00298H4.00398ZM23.164 10.7341C23.4373 10.7341 23.6976 10.6331 23.945 10.4311C24.1923 10.2291 24.3486 9.98511 24.414 9.69911C24.4793 9.41311 24.437 9.17211 24.287 8.97611C24.137 8.78011 23.932 8.68245 23.672 8.68311H22.578L22.148 10.7341H23.164ZM13.633 8.80111L14.434 14.6801L12.989 17.1411H15.196L19.884 8.80111H17.853L15.9 12.2781L15.587 8.80111H13.633ZM10.391 12.6881C10.391 12.5581 10.4236 12.3824 10.489 12.1611H9.98098C9.36898 12.1611 8.97831 12.3238 8.80898 12.6491C8.67898 12.8838 8.67564 13.0791 8.79898 13.2351C8.92231 13.3911 9.10131 13.4691 9.33598 13.4691C9.90864 13.4431 10.2603 13.1828 10.391 12.6881ZM29.59 12.6881C29.616 12.4668 29.655 12.2911 29.707 12.1611H29.219C28.5676 12.1611 28.1706 12.3238 28.028 12.6491C27.898 12.8838 27.8946 13.0791 28.018 13.2351C28.1413 13.3911 28.3203 13.4691 28.555 13.4691C29.141 13.4431 29.486 13.1828 29.59 12.6881Z" fill="white"/>
</svg>
