<svg width="96" height="22" viewBox="0 0 96 22" fill="none" xmlns="http://www.w3.org/2000/svg">
<g clip-path="url(#clip0_14_783)">
<path d="M24.9301 11.9917C24.3156 11.6554 23.999 11.3719 23.999 10.9824C23.999 10.4865 24.4381 10.1681 25.1234 10.1681C25.644 10.1803 26.1572 10.2948 26.6345 10.5045L27.1966 8.7689C27.1966 8.7689 26.6794 8.36177 25.1586 8.36177C23.0413 8.36177 21.5744 9.5835 21.5744 11.3014C21.5744 12.2752 22.26 13.019 23.1735 13.5505C23.9116 13.9752 24.1747 14.2763 24.1747 14.719C24.1747 15.1797 23.806 15.5516 23.1207 15.5516C22.429 15.5232 21.7515 15.3418 21.1353 15.0201L20.5374 16.7557C21.2656 17.1735 22.0914 17.3819 22.9267 17.3586C25.1052 17.3586 26.6687 16.2781 26.6687 14.3302C26.6697 13.2846 25.8788 12.5408 24.9301 11.9917ZM33.4844 8.3235C32.989 8.32832 32.5011 8.44705 32.057 8.67084C31.6129 8.89463 31.224 9.21771 30.9193 9.61602L30.8844 9.5984L31.8155 4.69287H29.3909L27.0365 17.1777H29.461L30.2692 12.91C30.5855 11.298 31.4113 10.3066 32.1842 10.3066C32.729 10.3066 32.9396 10.6785 32.9396 11.21C32.9396 11.5724 32.9041 11.9345 32.834 12.2901L31.9205 17.1777H34.3451L35.2938 12.1309C35.3986 11.606 35.4574 11.0726 35.4695 10.537C35.4695 9.15605 34.7493 8.3235 33.4844 8.3235ZM40.9844 8.36144C38.0678 8.36144 36.1355 11.0179 36.1355 13.9755C36.1355 15.8706 37.2948 17.3935 39.4733 17.3935C42.3373 17.3935 44.2696 14.8081 44.2696 11.7797C44.2696 10.0265 43.2508 8.36177 40.9844 8.36177V8.36144ZM39.7885 15.5157C38.9627 15.5157 38.6113 14.8081 38.6113 13.922C38.6113 12.5228 39.3318 10.2382 40.6492 10.2382C41.5099 10.2382 41.7912 10.982 41.7912 11.7082C41.7926 13.2145 41.0721 15.5163 39.7898 15.5163L39.7885 15.5157ZM50.4561 8.36144C48.8198 8.36144 47.891 9.81382 47.891 9.81382H47.8562L47.9967 8.50369H45.8531C45.7478 9.38908 45.5545 10.7351 45.3612 11.7445L43.6744 20.6878H46.0989L46.7666 17.0751H46.8184C47.2577 17.3051 47.7481 17.415 48.2415 17.3938C51.0876 17.3938 52.9498 14.4538 52.9498 11.4786C52.9508 9.83177 52.2303 8.36177 50.4561 8.36177V8.36144ZM48.1372 15.5516C47.7729 15.5572 47.4184 15.4319 47.1357 15.1976L47.5396 12.913C47.8206 11.3898 48.6112 10.3805 49.4546 10.3805C50.1921 10.3805 50.4209 11.0715 50.4209 11.7265C50.4206 13.3025 49.4898 15.5516 48.1372 15.5516ZM56.5008 4.95673C56.3173 4.95595 56.1355 4.99218 55.9658 5.06333C55.7961 5.13448 55.6418 5.23914 55.5119 5.37131C55.383 5.50257 55.2813 5.65889 55.2129 5.831C55.1444 6.00311 55.1105 6.1875 55.1133 6.37321C55.1133 7.0994 55.57 7.59527 56.2553 7.59527H56.2902C56.4772 7.60298 56.6638 7.57175 56.8385 7.5035C57.0133 7.43525 57.1726 7.33141 57.3067 7.19831C57.4398 7.0662 57.5447 6.90741 57.6147 6.73195C57.6846 6.55648 57.7182 6.36814 57.7133 6.17879C57.7217 6.01563 57.6961 5.85249 57.6382 5.70016C57.5802 5.54783 57.4913 5.40977 57.3771 5.2951C57.2622 5.1796 57.1249 5.08981 56.974 5.03149C56.8231 4.97317 56.662 4.94759 56.5008 4.95639V4.95673ZM53.0332 17.2834H55.4578L57.1094 8.6236H54.6675L53.0332 17.2834ZM63.4218 8.68219H61.735L61.823 8.27507C61.9635 7.44252 62.4555 6.69871 63.2637 6.69871C63.5261 6.69939 63.7868 6.74105 64.0366 6.82268L64.511 4.90965C64.091 4.74622 63.6422 4.67389 63.1932 4.69727C62.3331 4.67345 61.4926 4.9623 60.8221 5.51221C59.9963 6.21977 59.6097 7.24776 59.417 8.27473L59.3466 8.68186H58.2225L57.8711 10.5238H58.9955L57.7126 17.3596H60.1372L61.4201 10.5244H63.0889L63.4218 8.68219ZM69.0499 8.6236C69.0499 8.6236 67.5342 12.473 66.8539 14.574H66.8187C66.7722 13.8976 66.2207 8.6236 66.2207 8.6236H63.6729L65.1322 16.5758C65.171 16.713 65.1521 16.8603 65.08 16.983C64.7628 17.5736 64.3108 18.0778 63.7623 18.453C63.3409 18.7499 62.8793 18.9825 62.392 19.1436L63.0597 21.2158C63.9456 20.9791 64.7604 20.5228 65.4315 19.8874C66.5383 18.8425 67.5571 17.2309 68.6111 15.0347L71.5805 8.62394H69.0499V8.6236Z" fill="white"/>
<path d="M11.6984 20.8148L17.6999 19.5006C17.6999 19.5006 15.5361 4.75013 15.5228 4.64885C15.5158 4.60566 15.4949 4.56609 15.4632 4.53649C15.4316 4.50689 15.3912 4.48897 15.3484 4.4856C15.276 4.4795 13.7423 4.36502 13.7423 4.36502C13.7423 4.36502 12.6767 3.2991 12.5604 3.18123C12.5317 3.15319 12.497 3.13232 12.4591 3.12026L11.6984 20.8148ZM12.0309 2.87876C12.0076 2.88316 11.9864 2.8879 11.9708 2.89231L11.3745 3.07826C11.0187 2.04621 10.3909 1.09782 9.28642 1.09782C9.25586 1.09782 9.2243 1.09918 9.19308 1.10121C9.07693 0.926079 8.92265 0.780692 8.74229 0.676402C8.56194 0.572111 8.36038 0.511739 8.15336 0.5C5.57929 0.5 4.35056 3.74281 3.9649 5.39029L2.16448 5.95323C1.60642 6.13003 1.58882 6.14765 1.51441 6.67773C1.46026 7.0791 0 18.4631 0 18.4631L11.2702 20.5916L12.0309 2.87876ZM9.10837 3.67235V3.78548L7.11928 4.40498C7.50228 2.91534 8.21979 2.19592 8.84761 1.92427C9.04094 2.48585 9.1293 3.07826 9.10837 3.67235ZM8.0826 1.19571C8.20152 1.19808 8.31679 1.23737 8.41279 1.30782C7.58799 1.69903 6.70439 2.68434 6.33068 4.65156L4.75881 5.14235C5.19662 3.64187 6.23468 1.19571 8.0826 1.19571ZM8.52706 9.96694C8.06459 9.73884 7.55887 9.61643 7.0452 9.60824C5.84936 9.60824 5.7879 10.3656 5.7879 10.5566C5.7879 11.5975 8.48022 11.9978 8.48022 14.4349C8.48022 16.3533 7.27308 17.5889 5.64507 17.5889C5.09664 17.6039 4.55113 17.5027 4.04301 17.2918C3.53488 17.0809 3.07519 16.7648 2.69298 16.3635L3.21617 14.6218C3.21617 14.6218 4.24293 15.5103 5.10959 15.5103C5.21298 15.5148 5.3162 15.498 5.41307 15.4608C5.50993 15.4237 5.59844 15.367 5.6733 15.2942C5.74767 15.2218 5.80669 15.1347 5.84668 15.0381C5.88668 14.9416 5.90681 14.8377 5.90583 14.7329C5.90583 13.3747 3.69583 13.3137 3.69583 11.0823C3.69583 9.20416 5.03319 7.38732 7.73282 7.38732C8.26699 7.35966 8.7999 7.46267 9.28709 7.68776L8.52706 9.96694ZM9.55349 1.79827C10.1222 1.87042 10.5015 2.52311 10.7454 3.27437L9.78369 3.57481V3.36481C9.79416 2.8331 9.71655 2.30343 9.55349 1.79827Z" fill="white"/>
<path d="M72.7474 21.1613L74.4372 11.8261C74.6205 10.8255 74.7788 9.82035 74.9123 8.81159H75.6341L75.3703 10.5837H75.4055C76.1622 9.37758 77.2186 8.62903 78.3453 8.62903C79.9471 8.62903 80.5457 10.0357 80.5457 11.4789C80.5457 14.4382 78.5918 17.7633 75.8985 17.7633C75.3122 17.7856 74.7303 17.6534 74.2087 17.3796H74.1735L73.5045 21.1606L72.7474 21.1613ZM74.3316 16.5762C74.8082 16.9217 75.3843 17.0953 75.9686 17.0693C78.2042 17.0693 79.7528 13.7808 79.7528 11.5335C79.7528 10.4923 79.3655 9.32304 78.1158 9.32304C76.919 9.32304 75.3514 10.9123 74.877 13.5613L74.3316 16.5762ZM86.308 17.5811C86.3279 16.7919 86.3984 16.0044 86.5193 15.2244H86.4851C85.5171 17.1611 84.4442 17.764 83.333 17.764C82.0478 17.764 81.2735 16.6676 81.2735 15.0967C81.2735 12.1008 83.333 8.62937 86.607 8.62937C87.1858 8.62177 87.7622 8.70821 88.3144 8.88543L87.4168 13.5989C87.1584 14.9096 87.0346 16.2442 87.0475 17.5811H86.308ZM87.4344 9.45175C87.104 9.34938 86.7586 9.30606 86.4136 9.32372C83.9854 9.32372 82.0837 12.137 82.0661 14.8955C82.0485 16.0468 82.365 17.0697 83.5094 17.0697C84.8823 17.0697 86.4316 14.9324 86.8362 12.6671L87.4344 9.45175ZM90.4084 8.62903L91.2535 13.9271C91.4296 14.9134 91.5173 15.5164 91.6053 16.3201H91.6408C91.8867 15.6806 92.1859 15.0046 92.5912 14.1097L95.0032 8.62903H95.813L92.6616 15.6278C91.9043 17.3437 91.1113 18.899 89.951 20.049C89.406 20.6459 88.7214 21.0921 87.9613 21.3459L87.7324 20.6515C88.2874 20.4245 88.8042 20.1102 89.2638 19.7201C89.9742 19.0731 90.5542 18.2911 90.9712 17.4179C91.0403 17.2831 91.0591 17.1274 91.024 16.9796L89.6338 8.62903H90.4084Z" fill="white"/>
</g>
<defs>
<clipPath id="clip0_14_783">
<rect width="96" height="21" fill="white" transform="translate(0 0.5)"/>
</clipPath>
</defs>
</svg>
