<svg width="32" height="24" viewBox="0 0 32 24" fill="none" xmlns="http://www.w3.org/2000/svg">
<g clip-path="url(#clip0_14_792)">
<path d="M22.7082 10.1579C22.0911 9.8763 21.4507 9.7435 20.787 9.7595C20.309 9.7595 19.9424 9.8495 19.6871 10.0295C19.4319 10.2095 19.3047 10.4127 19.3055 10.6391C19.3063 10.8655 19.4181 11.0687 19.6409 11.2487C19.8637 11.4287 20.2379 11.6515 20.7633 11.9171C22.229 12.5891 22.9543 13.5031 22.9393 14.6591C22.9393 15.7215 22.5304 16.5691 21.7126 17.2019C20.8949 17.8347 19.7993 18.1511 18.4261 18.1511C17.2844 18.1351 16.32 17.9555 15.5331 17.6123L15.8803 15.3155L16.2039 15.5027C17.0833 15.8619 17.9011 16.0415 18.6572 16.0415C19.0736 16.0415 19.4363 15.9515 19.7452 15.7715C20.0542 15.5915 20.2161 15.3375 20.2311 15.0095C20.2311 14.7911 20.1308 14.5919 19.9301 14.4119C19.7294 14.2319 19.3668 14.0091 18.8421 13.7435C18.549 13.5875 18.2906 13.4391 18.067 13.2983C17.8434 13.1575 17.6079 12.9739 17.3606 12.7475C17.1133 12.5211 16.9205 12.2555 16.7823 11.9507C16.644 11.6459 16.5745 11.3215 16.5737 10.9775C16.5895 9.9935 17.0098 9.1927 17.8347 8.5751C18.6596 7.9575 19.7128 7.6491 20.9944 7.6499C21.8122 7.6499 22.5837 7.7827 23.3091 8.0483L22.9855 10.2743L22.7082 10.1579ZM11.8756 7.8371L7.77841 18.0095H5.04655L2.91678 9.8999C3.65791 10.1967 4.33307 10.6499 4.94226 11.2595C5.55144 11.8691 5.98759 12.5331 6.2507 13.2515C5.29386 10.5795 3.2107 8.8375 0.0012207 8.0255L0.0249244 7.8383H4.21455C4.86246 7.8383 5.25594 8.1119 5.395 8.6591L6.29811 13.3463L6.59915 14.7527L9.12241 7.8383H11.8768L11.8756 7.8371ZM15.5319 7.8371L13.9117 18.0095H11.3186L12.9387 7.8371H15.5319ZM32.0605 18.0095H29.6297C29.5064 17.2127 29.414 16.7047 29.3523 16.4855L26.0184 16.4615L25.4863 18.0083H22.7319L26.598 8.6567C26.8295 8.1095 27.2846 7.8359 27.9633 7.8359H29.9544L32.0605 18.0095ZM28.1719 10.5563L28.0095 10.9895C27.9479 11.1535 27.8977 11.2903 27.859 11.3999C27.8203 11.5095 27.8088 11.5563 27.8246 11.5403C27.2692 13.0403 26.9219 13.9935 26.7829 14.3999H28.8889L28.3331 11.4467L28.1719 10.5563Z" fill="white"/>
</g>
<defs>
<clipPath id="clip0_14_792">
<rect width="32" height="24" fill="white"/>
</clipPath>
</defs>
</svg>
